/* XPM */
static char * magit_icon_80x80px_xpm[] = {
"24 24 98 2",
"  	c None",
". 	c #E54A24",
"+ 	c #E44A24",
"@ 	c #F19D89",
"# 	c #E96241",
"$ 	c #E54923",
"% 	c #E85E3D",
"& 	c #F9D8D0",
"* 	c #F1A08D",
"= 	c #E4451E",
"- 	c #E54922",
"; 	c #ED8166",
"> 	c #EB7659",
", 	c #EB785B",
"' 	c #EC7E63",
") 	c #E96646",
"! 	c #E75633",
"~ 	c #E85D3B",
"{ 	c #EE8971",
"] 	c #EA6F51",
"^ 	c #E54822",
"/ 	c #FCE7E2",
"( 	c #F9D7CE",
"_ 	c #E75734",
": 	c #E75733",
"< 	c #F2A08C",
"[ 	c #ED8369",
"} 	c #E64D28",
"| 	c #E96444",
"1 	c #E6532E",
"2 	c #E54B26",
"3 	c #E96544",
"4 	c #E54D27",
"5 	c #FCEDEA",
"6 	c #EF927B",
"7 	c #E54821",
"8 	c #FFFFFF",
"9 	c #E6512E",
"0 	c #E75835",
"a 	c #E96140",
"b 	c #E6522E",
"c 	c #FCEEEA",
"d 	c #ED8268",
"e 	c #E54721",
"f 	c #EB7558",
"g 	c #E85C3A",
"h 	c #F9D0C6",
"i 	c #F3A896",
"j 	c #F7C3B6",
"k 	c #FCE9E4",
"l 	c #EA6B4B",
"m 	c #EB7457",
"n 	c #E65430",
"o 	c #FEF9F8",
"p 	c #FEF5F3",
"q 	c #FEF7F5",
"r 	c #E6512C",
"s 	c #ED8167",
"t 	c #FCE9E5",
"u 	c #FDEEEB",
"v 	c #F7C4B8",
"w 	c #E85F3E",
"x 	c #EA7152",
"y 	c #F6C4B7",
"z 	c #F8CDC3",
"A 	c #F2A18D",
"B 	c #F3A996",
"C 	c #F3A592",
"D 	c #F7C9BE",
"E 	c #F6C0B2",
"F 	c #EA694A",
"G 	c #F9D5CC",
"H 	c #F2A592",
"I 	c #ED866D",
"J 	c #EE8A72",
"K 	c #F4B4A5",
"L 	c #FBDED8",
"M 	c #ED8067",
"N 	c #F0957E",
"O 	c #FCE8E3",
"P 	c #FCE7E3",
"Q 	c #E65530",
"R 	c #EA6D4F",
"S 	c #E96545",
"T 	c #EE886F",
"U 	c #FCE7E1",
"V 	c #FCEDE9",
"W 	c #EA6C4D",
"X 	c #EC7A5E",
"Y 	c #FDF3F0",
"Z 	c #EB7356",
"` 	c #FFFCFC",
" .	c #E54B25",
"..	c #F9D1C7",
"+.	c #FAE0D9",
"@.	c #FADFD8",
"#.	c #F9D3CA",
"$.	c #EF8F77",
"                    . . . .                     ",
"                  + . . . . .                   ",
"                . . @ # $ . . .                 ",
"              + . % & * = . . . .               ",
"            + . . . . . . . . . . .             ",
"          . . . . - $ ; > $ , ' . . .           ",
"        + . . . . ) ! ~ { ] ^ . . . . .         ",
"      + . . . . = / ( _ : < [ $ . . . . .       ",
"    . . . . . } | 1 2 3 4 _ 5 6 $ . . . . .     ",
"  + . . . . 7 ~ 8 9 0 8 a ^ b c d e . . . . .   ",
". . . . . ^ f g h i j k l m . n o d $ . . . . . ",
". . . . . p q r s t u v w 8 8 $ n c 6 $ . . . . ",
". . . . . x y z A B C * D E F 7 . b c d e . . . ",
". . . . . . _ G H I J K L . . . . . n o M $ . . ",
"  . . . . . w N O 8 8 8 P . . . . . $ Q R - .   ",
"    . . . . S T U 8 8 8 V . . . . . . . . .     ",
"      . . . W X O 8 8 8 Y . . . . . . . .       ",
"        . . Z ) O 8 8 8 ` . . . . . . .         ",
"          .  .A ..+.@.#.$.. . . . . .           ",
"            . . . . . . . . . . . .             ",
"              . . . . . . . . . .               ",
"                . . . . . . . .                 ",
"                  . . . . . .                   ",
"                    . . . .                     "};
